<svg xmlns="http://www.w3.org/2000/svg" viewBox="0 0 800 240" role="img" aria-label="ECG findings in hyperkalemia">
  <defs>
    <!-- Fine ECG Grid Pattern (1mm squares) -->
    <pattern id="fineGrid" x="0" y="0" width="4" height="4" patternUnits="userSpaceOnUse">
      <rect width="4" height="4" fill="#fff"/>
      <path d="M 4 0 L 0 0 0 4" fill="none" stroke="#e8b4b8" stroke-width="0.5"/>
    </pattern>
    <!-- Bold ECG Grid Pattern (5mm squares) -->
    <pattern id="boldGrid" x="0" y="0" width="20" height="20" patternUnits="userSpaceOnUse">
      <rect width="20" height="20" fill="url(#fineGrid)"/>
      <path d="M 20 0 L 0 0 0 20" fill="none" stroke="#d88a8f" stroke-width="1"/>
    </pattern>
  </defs>

  <!-- Panel 1: Peaked T-Wave - traced from original -->
  <g id="panel1">
    <rect x="5" y="5" width="190" height="120" fill="url(#boldGrid)" stroke="#333" stroke-width="2"/>

    <!-- Exact trace of Panel 1 waveform -->
    <path d="M 15,65
             L 30,65
             L 32,63
             L 34,65
             L 36,40
             L 38,68
             L 40,65
             L 52,65
             L 54,64
             L 56,63
             L 60,20
             L 64,63
             L 66,64
             L 68,65
             L 85,65
             L 87,63
             L 89,65
             L 91,40
             L 93,68
             L 95,65
             L 107,65
             L 109,64
             L 111,63
             L 115,20
             L 119,63
             L 121,64
             L 123,65
             L 140,65
             L 142,63
             L 144,65
             L 146,40
             L 148,68
             L 150,65
             L 162,65
             L 164,64
             L 166,63
             L 170,20
             L 174,63
             L 176,64
             L 178,65
             L 190,65"
          fill="none" stroke="#000" stroke-width="2" stroke-linecap="round" stroke-linejoin="round"/>

    <rect x="5" y="130" width="190" height="40" fill="#F4C430" stroke="#000" stroke-width="1.5"/>
    <text x="100" y="147" text-anchor="middle" font-family="Arial, sans-serif" font-size="11" font-weight="bold" fill="#000">Peaked T-Wave</text>
    <text x="100" y="162" text-anchor="middle" font-family="Arial, sans-serif" font-size="10" fill="#000">(tall and symmetric)</text>
  </g>

  <!-- Panel 2: Widened QRS - traced from original -->
  <g id="panel2">
    <rect x="205" y="5" width="190" height="120" fill="url(#boldGrid)" stroke="#333" stroke-width="2"/>

    <!-- Exact trace of Panel 2 waveform -->
    <path d="M 215,65
             L 230,65
             L 232,64
             L 236,43
             L 240,65
             L 244,69
             L 248,65
             L 260,65
             L 262,64
             L 264,62
             L 268,35
             L 272,62
             L 274,64
             L 276,65
             L 285,65
             L 287,64
             L 291,43
             L 295,65
             L 299,69
             L 303,65
             L 315,65
             L 317,64
             L 319,62
             L 323,35
             L 327,62
             L 329,64
             L 331,65
             L 340,65
             L 342,64
             L 346,43
             L 350,65
             L 354,69
             L 358,65
             L 370,65
             L 372,64
             L 374,62
             L 378,35
             L 382,62
             L 384,64
             L 386,65
             L 390,65"
          fill="none" stroke="#000" stroke-width="2" stroke-linecap="round" stroke-linejoin="round"/>

    <rect x="205" y="130" width="190" height="40" fill="#F4C430" stroke="#000" stroke-width="1.5"/>
    <text x="300" y="153" text-anchor="middle" font-family="Arial, sans-serif" font-size="11" font-weight="bold" fill="#000">Widened QRS</text>
  </g>

  <!-- Panel 3: Widened QRS and lengthened QT (first example) - traced from original -->
  <g id="panel3">
    <rect x="405" y="5" width="190" height="120" fill="url(#boldGrid)" stroke="#333" stroke-width="2"/>

    <!-- Exact trace of Panel 3 waveform -->
    <path d="M 415,65
             L 430,65
             L 432,64
             L 437,42
             L 442,65
             L 447,70
             L 452,65
             L 464,65
             L 467,64
             L 470,62
             L 474,38
             L 478,62
             L 481,64
             L 484,65
             L 500,65
             L 502,64
             L 507,42
             L 512,65
             L 517,70
             L 522,65
             L 534,65
             L 537,64
             L 540,62
             L 544,38
             L 548,62
             L 551,64
             L 554,65
             L 570,65
             L 572,64
             L 577,42
             L 582,65
             L 587,70
             L 590,65"
          fill="none" stroke="#000" stroke-width="2" stroke-linecap="round" stroke-linejoin="round"/>
  </g>

  <!-- Panel 4: Widened QRS and lengthened QT (second example) - traced from original -->
  <g id="panel4">
    <rect x="605" y="5" width="190" height="120" fill="url(#boldGrid)" stroke="#333" stroke-width="2"/>

    <!-- Exact trace of Panel 4 waveform -->
    <path d="M 615,65
             L 630,65
             L 633,63
             L 638,40
             L 644,65
             L 650,72
             L 656,65
             L 668,65
             L 672,63
             L 677,42
             L 682,63
             L 686,65
             L 700,65
             L 703,63
             L 708,40
             L 714,65
             L 720,72
             L 726,65
             L 738,65
             L 742,63
             L 747,42
             L 752,63
             L 756,65
             L 770,65
             L 773,63
             L 778,40
             L 784,65
             L 790,72"
          fill="none" stroke="#000" stroke-width="2" stroke-linecap="round" stroke-linejoin="round"/>
  </g>

  <!-- Single yellow label box spanning panels 3 and 4 -->
  <rect x="405" y="130" width="390" height="40" fill="#F4C430" stroke="#000" stroke-width="1.5"/>
  <text x="600" y="147" text-anchor="middle" font-family="Arial, sans-serif" font-size="11" font-weight="bold" fill="#000">Widened QRS and lengthened QT</text>
  <text x="600" y="162" text-anchor="middle" font-family="Arial, sans-serif" font-size="11" font-weight="bold" fill="#000">interval</text>
</svg>
